# xmcd CD database file
#
# Track frame offsets:
#	150
#	20774
#	38161
#	54482
#	74799
#	94418
#	110762
#	123641
#	138532
#	156029
#	174578
#
# Disc length: 2494 seconds
#
# Revision: 0
# Processed by: cddbd v1.5.1PL2 Copyright (c) Steve Scherf et al.
# Submitted via: CDex 1.51
#
DISCID=a709bc0b
DTITLE=Vivienne - 倫敦人形
DYEAR=1900
DGENRE=Other
TTITLE0=Won't You Be Mine
TTITLE1=浮気なシュガーボーイ
TTITLE2=Maybe Baby
TTITLE3=恋するビビアンス
TTITLE4=My Married Man
TTITLE5=恋の条件
TTITLE6=Sugar Baby Game
TTITLE7=Misty Game
TTITLE8=Please Catch Me
TTITLE9=雨のマージーリバー
TTITLE10=うきうきHighway
EXTD=
EXTT0=
EXTT1=
EXTT2=
EXTT3=
EXTT4=
EXTT5=
EXTT6=
EXTT7=
EXTT8=
EXTT9=
EXTT10=
PLAYORDER=
